<svg width="1411" height="441" viewBox="0 0 1411 441" fill="none" xmlns="http://www.w3.org/2000/svg">
<path d="M649.648 252.452C648.668 248.538 648.668 237.774 648.668 219.184V154.604C648.668 134.057 644.749 118.401 635.93 106.659C632.01 100.788 626.131 96.8746 620.252 92.9607C613.393 90.0253 605.554 88.0684 596.735 88.0684C587.917 88.0684 578.118 90.0253 569.299 94.9177C563.42 97.8531 556.561 102.745 548.722 111.552C540.883 95.8961 527.165 88.0684 508.548 88.0684C492.87 88.0684 478.172 93.9392 463.474 105.681V92.9607H421.34V262.236H463.474C462.494 255.387 462.494 239.731 462.494 215.27V148.734C472.293 135.035 484.051 128.186 497.769 128.186C501.689 128.186 504.628 129.164 506.588 130.143C508.548 132.1 511.487 135.035 513.447 140.906C515.407 145.798 516.387 157.54 516.387 175.152V263.215C522.266 263.215 528.145 263.215 535.004 263.215H558.521C557.541 246.581 556.561 224.076 556.561 196.679V153.626C556.561 152.647 556.561 151.669 556.561 150.691C561.46 141.884 566.36 136.013 570.279 133.078C572.239 131.121 575.178 130.143 578.118 129.164C581.058 128.186 583.997 128.186 587.917 128.186C591.836 128.186 594.776 129.164 596.735 130.143C604.574 135.035 608.494 149.712 608.494 175.152V262.236C614.373 262.236 619.272 262.236 623.192 262.236H634.95C638.869 262.236 645.728 262.236 654.547 263.215V262.236C653.567 261.258 653.567 260.279 652.587 259.301C650.628 258.322 649.648 256.365 649.648 252.452ZM757.433 90.0253C730.976 90.0253 709.419 98.8315 692.762 116.444C684.923 124.272 679.044 134.057 675.124 144.82C671.205 155.583 669.245 167.325 669.245 179.066C669.245 203.528 676.104 224.076 690.802 239.731C706.48 257.344 728.037 265.172 755.473 265.172C781.929 265.172 803.486 256.365 819.164 238.753C834.842 222.119 841.701 201.571 841.701 176.131C841.701 150.691 833.862 130.143 819.164 114.487C805.446 97.8531 783.889 90.0253 757.433 90.0253ZM789.768 214.291C781.929 224.076 771.151 228.968 757.433 228.968C742.735 228.968 730.976 224.076 722.158 214.291C718.238 209.399 714.319 204.506 712.359 197.657C710.399 190.808 709.419 184.937 709.419 178.088C709.419 164.389 713.339 152.647 721.178 142.863C729.017 132.1 740.775 127.207 755.473 127.207C770.171 127.207 780.949 132.1 789.768 141.884C797.607 150.691 801.526 163.411 801.526 178.088C801.526 192.765 797.607 204.506 789.768 214.291ZM1099.4 90.0253C1071.97 90.0253 1050.41 98.8315 1033.75 115.466C1025.91 123.293 1020.04 133.078 1015.14 143.841C1011.22 154.604 1008.28 166.346 1008.28 179.066C1008.28 204.506 1017.1 225.054 1035.71 240.71C1053.35 256.365 1075.89 264.193 1103.32 264.193C1108.22 264.193 1113.12 264.193 1119 263.215C1137.62 261.258 1150.36 257.344 1159.18 251.473L1161.14 226.033C1161.14 221.14 1162.12 216.248 1162.12 212.334C1160.16 213.313 1158.2 215.27 1155.26 217.227C1142.52 223.097 1127.82 226.033 1111.16 226.033C1094.5 226.033 1081.77 223.097 1070.99 216.248C1061.19 209.399 1054.33 200.593 1051.39 188.851H1108.22C1141.54 188.851 1163.1 186.894 1173.87 183.959C1174.85 181.023 1175.83 175.152 1175.83 166.346C1175.83 143.841 1168.97 125.25 1155.26 110.573C1141.54 97.8531 1122.92 90.0253 1099.4 90.0253ZM1122.92 159.497H1109.2C1104.3 159.497 1098.42 159.497 1092.55 159.497H1083.73C1079.81 159.497 1075.89 159.497 1071.97 159.497H1060.21C1056.29 159.497 1053.35 159.497 1050.41 159.497C1051.39 154.604 1053.35 149.712 1056.29 144.82C1065.11 131.121 1076.87 123.293 1093.52 123.293C1114.1 123.293 1126.84 135.035 1131.74 158.518C1129.78 158.518 1126.84 159.497 1122.92 159.497ZM1335.55 114.487C1319.87 97.8531 1299.3 90.0253 1272.84 90.0253C1246.38 90.0253 1224.83 98.8315 1208.17 116.444C1200.33 124.272 1194.45 134.057 1190.53 144.82C1186.61 155.583 1185.63 166.346 1185.63 179.066C1185.63 203.528 1192.49 224.076 1207.19 239.731C1222.87 257.344 1244.42 265.172 1271.86 265.172C1298.32 265.172 1319.87 256.365 1335.55 238.753C1351.23 222.119 1358.09 201.571 1358.09 176.131C1358.09 150.691 1350.25 130.143 1335.55 114.487ZM1305.17 214.291C1297.34 224.076 1286.56 228.968 1272.84 228.968C1258.14 228.968 1246.38 224.076 1237.56 214.291C1233.65 209.399 1229.73 204.506 1227.77 197.657C1225.81 190.808 1224.83 184.937 1224.83 178.088C1224.83 164.389 1228.75 152.647 1236.58 142.863C1244.42 132.1 1256.18 127.207 1270.88 127.207C1285.58 127.207 1296.36 132.1 1305.17 141.884C1313.01 150.691 1316.93 163.411 1316.93 178.088C1315.95 192.765 1313.01 204.506 1305.17 214.291Z" fill="#444851"/>
<path d="M962.223 92.957L924.008 204.503L884.814 92.957H838.76L906.371 262.233H940.666L1007.3 92.957H962.223Z" fill="#4891FF"/>
<path d="M90.5797 150.269L35.1509 205.619L90.5797 260.969L146.008 205.619L90.5797 150.269Z" fill="#4891FF"/>
<path d="M205.283 150.074L149.854 205.424L205.283 260.774L260.712 205.424L205.283 150.074Z" fill="#444851"/>
<path d="M262.634 93.7592L207.206 149.109L262.634 204.46L318.063 149.109L262.634 93.7592Z" fill="#444851"/>
<path d="M147.931 93.7592L92.5024 149.109L147.931 204.46L203.36 149.109L147.931 93.7592Z" fill="#444851"/>
<path d="M319.986 149.857L264.557 205.207L319.986 260.557L375.415 205.207L319.986 149.857Z" fill="#4891FF"/>
<path d="M420.361 376.703V320.93H428.2V344.413H457.596V320.93H465.434V376.703H457.596V350.284H428.2V376.703H420.361Z" fill="#444851"/>
<path d="M475.232 349.309C475.232 339.524 478.172 332.675 483.071 327.783C487.971 322.89 494.83 319.955 502.669 319.955C507.568 319.955 512.467 320.934 516.387 323.869C520.306 326.804 523.246 329.74 526.185 334.632C529.125 339.524 529.125 344.417 529.125 349.309C529.125 355.18 528.145 360.072 525.205 364.965C522.266 369.857 519.326 372.792 515.407 374.749C511.487 376.706 506.588 378.663 501.689 378.663C496.789 378.663 491.89 377.685 487.971 374.749C484.051 371.814 481.112 368.879 478.172 363.986C475.232 359.094 475.232 354.202 475.232 349.309ZM483.071 349.309C483.071 356.159 485.031 361.051 488.951 364.965C492.87 368.879 496.789 370.836 502.669 370.836C508.548 370.836 512.467 368.879 516.387 364.965C520.306 361.051 522.266 355.18 522.266 348.331C522.266 343.438 521.286 339.525 520.306 336.589C518.346 333.654 516.387 330.718 513.447 328.761C510.507 326.804 507.568 325.826 503.648 325.826C498.749 325.826 493.85 327.783 489.93 331.697C484.051 334.632 483.071 340.503 483.071 349.309Z" fill="#444851"/>
<path d="M537.944 376.703V320.93H548.723L562.441 361.047C563.421 364.961 564.4 367.896 565.38 368.875C566.36 366.918 567.34 363.982 568.32 360.069L582.038 320.93H591.837V376.703H584.978V329.736L568.32 376.703H561.461L544.803 328.757V376.703H537.944Z" fill="#444851"/>
<path d="M603.595 376.703V320.93H643.769V327.779H610.454V345.391H641.809V352.241H610.454V371.81H644.749V378.66H603.595V376.703Z" fill="#444851"/>
<path d="M655.528 376.703V320.93H663.366V370.832H690.802V377.681H655.528V376.703Z" fill="#444851"/>
<path d="M693.742 376.703L715.299 320.93H723.138L745.675 376.703H736.856L729.997 360.069H706.481L700.601 376.703H693.742ZM710.4 353.219H729.017L723.138 337.564C721.179 332.671 720.199 328.757 719.219 325.822C718.239 329.736 717.259 332.671 716.279 336.585L710.4 353.219Z" fill="#444851"/>
<path d="M752.534 376.703V320.93H760.373L789.769 364.961V320.93H796.628V376.703H788.789L759.393 332.671V376.703H752.534Z" fill="#444851"/>
<path d="M809.366 376.703V320.93H828.963C832.883 320.93 836.802 320.93 838.762 321.908C841.701 322.887 844.641 323.865 846.601 325.822C849.54 328.757 851.5 331.693 853.46 335.607C855.419 339.521 855.419 344.413 855.419 349.305C855.419 353.219 854.44 357.133 853.46 361.047C852.48 364.961 851.5 366.918 849.54 368.875C847.58 370.832 846.601 372.789 844.641 373.767C842.681 374.746 840.721 375.724 837.782 376.703C834.842 377.681 831.903 377.681 828.963 377.681H809.366V376.703ZM816.225 369.853H827.983C831.903 369.853 834.842 369.853 836.802 368.875C838.762 367.896 840.721 366.918 841.701 365.939C843.661 363.982 844.641 362.026 845.621 359.09C846.601 356.155 847.581 352.241 847.581 348.327C847.581 342.456 846.601 337.564 844.641 334.628C842.681 331.693 840.721 329.736 837.782 328.757C835.822 327.779 832.883 327.779 827.983 327.779H816.225V369.853V369.853Z" fill="#444851"/>
<path d="M884.815 358.117L891.674 357.139C891.674 360.074 892.654 362.031 893.634 363.988C894.614 365.945 896.574 366.924 899.513 367.902C902.453 368.88 905.392 369.859 908.332 369.859C911.271 369.859 913.231 369.859 916.171 368.88C918.131 367.902 920.09 366.924 921.07 364.967C922.05 363.01 923.03 362.031 923.03 360.074C923.03 358.117 922.05 357.139 921.07 355.182C920.09 354.203 918.131 353.225 916.171 352.246C914.211 351.268 911.272 350.29 906.372 349.311C901.473 348.333 897.553 347.354 895.594 345.397C892.654 344.419 890.694 342.462 889.715 340.505C888.735 338.548 887.755 335.612 887.755 333.656C887.755 330.72 888.735 327.785 889.715 325.828C891.674 322.892 893.634 321.914 896.574 319.957C899.513 318.978 903.433 318 907.352 318C911.272 318 915.191 318.978 918.131 319.957C921.07 320.935 924.01 322.892 925.969 325.828C927.929 328.763 928.909 331.699 928.909 334.634L921.07 336.591C921.07 332.677 919.11 330.72 917.151 328.763C915.191 326.806 911.272 325.828 907.352 325.828C902.453 325.828 899.513 326.806 897.553 328.763C895.594 330.72 894.614 332.677 894.614 334.634C894.614 336.591 895.594 338.548 896.574 339.526C897.553 340.505 901.473 342.462 907.352 343.44C913.231 344.419 917.151 346.376 920.09 347.354C923.03 349.311 925.969 350.29 926.949 353.225C928.909 355.182 928.909 358.117 928.909 361.053C928.909 363.988 927.929 366.924 925.969 369.859C924.01 372.794 922.05 374.751 918.131 375.73C915.191 376.708 911.272 377.687 907.352 377.687C902.453 377.687 897.554 376.708 894.614 375.73C890.694 373.773 888.735 371.816 886.775 368.88C885.795 365.945 884.815 362.031 884.815 358.117Z" fill="#444851"/>
<path d="M939.687 376.703V320.93H980.841V327.779H947.526V345.391H978.882V352.241H947.526V371.81H981.821V378.66H939.687V376.703Z" fill="#444851"/>
<path d="M1032.77 357.137L1040.61 359.094C1038.65 364.965 1036.69 369.857 1031.79 372.793C1027.87 375.728 1022.98 377.685 1017.1 377.685C1011.22 377.685 1006.32 376.706 1002.4 373.771C998.479 370.836 995.54 367.9 993.58 363.008C991.62 358.115 990.64 353.223 990.64 348.331C990.64 342.46 991.62 337.568 993.58 332.675C995.54 328.761 999.459 324.847 1003.38 322.89C1007.3 320.934 1012.2 319.955 1017.1 319.955C1022.98 319.955 1027.87 320.934 1030.81 323.869C1034.73 326.804 1037.67 330.718 1038.65 335.611L1031.79 337.568C1030.81 333.654 1028.85 330.718 1025.92 328.761C1022.98 326.804 1020.04 325.826 1016.12 325.826C1012.2 325.826 1008.28 326.804 1005.34 328.761C1002.4 330.718 1000.44 333.654 999.459 337.568C998.479 341.481 997.499 344.417 997.499 348.331C997.499 353.223 998.479 357.137 999.459 361.051C1000.44 364.965 1003.38 366.922 1006.32 368.879C1009.26 370.836 1012.2 371.814 1016.12 371.814C1020.04 371.814 1023.96 370.836 1026.9 367.9C1029.83 364.965 1031.79 362.029 1032.77 357.137Z" fill="#444851"/>
<path d="M1085.69 320.93H1093.53V353.219C1093.53 359.09 1092.55 363.004 1091.57 366.918C1090.59 369.853 1087.65 372.789 1084.71 374.746C1081.77 376.703 1076.87 377.681 1071.97 377.681C1067.07 377.681 1062.17 376.703 1059.23 374.746C1056.29 372.789 1053.35 369.853 1052.37 366.918C1051.39 363.004 1050.41 359.09 1050.41 353.219V320.93H1058.25V353.219C1058.25 358.112 1058.25 362.026 1059.23 363.982C1060.21 365.939 1062.17 367.896 1064.13 368.875C1066.09 369.853 1069.03 370.832 1071.97 370.832C1077.85 370.832 1081.77 369.853 1083.73 366.918C1085.69 363.982 1087.65 360.069 1087.65 352.241V320.93H1085.69Z" fill="#444851"/>
<path d="M1106.26 376.703V320.93H1130.76C1135.66 320.93 1139.58 321.908 1142.52 322.887C1145.46 323.865 1147.42 325.822 1148.4 327.779C1150.36 330.714 1150.36 332.671 1150.36 336.585C1150.36 340.499 1149.38 344.413 1146.44 346.37C1143.5 348.327 1139.58 351.262 1134.68 351.262C1136.64 352.241 1138.6 353.219 1139.58 354.198C1141.54 356.155 1143.5 359.09 1145.46 362.025L1155.26 377.681H1145.46L1137.62 365.939C1135.66 363.004 1133.7 360.069 1132.72 358.112C1131.74 356.155 1129.78 355.176 1128.8 354.198C1127.82 353.219 1126.84 353.219 1125.86 352.241C1124.88 352.241 1123.9 352.241 1121.94 352.241H1113.12V376.703H1106.26V376.703ZM1113.12 345.391H1128.8C1131.74 345.391 1134.68 345.391 1136.64 344.413C1138.6 343.435 1139.58 342.456 1140.56 341.478C1141.54 339.521 1142.52 338.542 1142.52 336.585C1142.52 333.65 1141.54 331.693 1139.58 329.736C1137.62 327.779 1134.68 326.801 1130.76 326.801H1113.12V345.391Z" fill="#444851"/>
<path d="M1164.08 376.703V320.93H1171.91V376.703H1164.08Z" fill="#444851"/>
<path d="M1198.37 376.706V326.804H1179.75V319.955H1223.85V326.804H1205.23V376.706H1198.37Z" fill="#444851"/>
<path d="M1248.34 376.703V353.219L1226.79 320.93H1235.6L1246.38 337.564C1248.34 340.499 1250.3 343.435 1252.26 347.348C1254.22 344.413 1256.18 341.478 1258.14 337.564L1268.92 320.93H1277.74L1255.2 353.219V376.703H1248.34Z" fill="#444851"/>
</svg>
